<svg width="291" height="75" viewBox="0 0 291 75" fill="none" xmlns="http://www.w3.org/2000/svg">
<rect width="75" height="75" rx="20" fill="url(#paint0_linear)"/>
<path d="M25.0402 65.4959C25.1042 65.3025 25.188 65.1133 25.2281 64.9151C25.344 64.3512 25.4916 63.7944 25.6703 63.2472C25.8702 62.6322 26.0294 62.0082 26.322 61.4238C26.5374 60.9967 26.6661 60.527 26.8557 60.0862C27.0628 59.6057 27.2794 59.1252 27.5218 58.6621C27.7468 58.2321 28.0131 57.8213 28.259 57.4051C28.5415 56.9246 28.8036 56.4291 29.1069 55.9636C29.3667 55.5636 29.7173 55.2182 29.9447 54.8026C30.1482 54.423 30.4474 54.1353 30.6819 53.7888C30.7418 53.7041 30.8046 53.6248 30.8692 53.5455C30.9201 53.4854 30.9752 53.4254 31.0284 53.3653C30.965 53.3066 30.897 53.2532 30.825 53.2056C30.5258 53.0404 30.2182 52.8932 29.9274 52.7191C29.5492 52.4944 29.144 52.2938 28.8209 52.0043C28.402 51.6295 27.9137 51.3569 27.5002 50.9833C27.225 50.7358 26.9856 50.4475 26.7301 50.1779C26.4446 49.8776 26.1317 49.5977 25.8792 49.2733C25.5387 48.8397 25.2347 48.3766 24.9271 47.9184C24.653 47.5105 24.3819 47.0997 24.1342 46.6763C23.9936 46.436 23.9014 46.1682 23.7889 45.9123C23.7195 45.7543 23.6555 45.5934 23.5861 45.4354C23.458 45.1447 23.3084 44.8618 23.2013 44.5639C22.9332 43.8174 22.7022 43.0624 22.7226 42.2516C22.7304 41.8882 22.6173 41.5212 22.6322 41.159C22.6591 40.5152 22.6645 39.8533 22.8243 39.2371C22.9841 38.6208 23.0224 37.9722 23.3132 37.3752C23.5364 36.9193 23.619 36.3956 23.7919 35.9121C23.9439 35.4856 24.1288 35.0712 24.3071 34.655C24.4173 34.3997 24.5429 34.1511 24.6602 33.8988C24.8619 33.4646 25.0707 33.0333 25.2628 32.5943C25.5261 31.9937 25.7702 31.3834 26.0341 30.7822C26.2334 30.3276 26.459 29.8813 26.6577 29.4284C26.7928 29.133 26.9062 28.8281 26.997 28.5161C27.105 28.1195 27.1882 27.7165 27.2459 27.3095C27.3129 26.829 27.3243 26.3485 27.0718 25.8902C26.8881 25.5569 26.7899 25.1749 26.602 24.8445C26.1831 24.113 25.6314 23.4745 24.8864 23.0926C24.2383 22.7604 23.5071 22.6121 22.7633 22.7532C22.1146 22.8733 21.4641 22.9862 20.8825 23.3472C20.4277 23.6295 19.934 23.8475 19.4655 24.107C19.3123 24.1923 19.1818 24.3184 19.0101 24.4499C18.7312 24.0323 18.535 23.5647 18.432 23.0727C18.3407 22.6135 18.2541 22.153 18.1723 21.6913C18.1454 21.5746 18.1385 21.4542 18.152 21.3352C18.2318 20.8823 18.3213 20.4312 18.4206 19.982C18.5164 19.5429 18.6187 19.1051 18.7336 18.6708C18.7683 18.5411 18.8533 18.424 18.9203 18.3045C19.2129 17.7849 19.4888 17.2552 19.8083 16.7531C20.0085 16.4578 20.2363 16.1825 20.4887 15.9308C20.7778 15.6233 21.0919 15.3314 21.4115 15.0443C21.5878 14.8939 21.7724 14.7536 21.9644 14.6239C22.1774 14.4701 22.3881 14.3104 22.6131 14.1752C22.9118 13.9829 23.2238 13.8121 23.5466 13.6641C23.8535 13.5363 24.173 13.4415 24.4998 13.3812C25.048 13.2773 25.6027 13.2052 26.1556 13.129C26.5147 13.0797 26.8809 12.9998 27.2393 13.0184C27.9499 13.0537 28.6582 13.1261 29.3613 13.2353C29.8944 13.32 30.4145 13.4875 30.9369 13.6299C31.0332 13.6563 31.1098 13.75 31.2032 13.7914C31.5538 13.959 31.9302 14.0839 32.254 14.2923C32.6585 14.5518 33.0217 14.8767 33.4011 15.1759C33.5796 15.3043 33.7491 15.4447 33.9085 15.5963C34.179 15.8792 34.4375 16.1741 34.6865 16.478C34.896 16.7362 35.0913 17.0057 35.2717 17.2852C35.4381 17.5459 35.5811 17.8222 35.7217 18.0984C35.9012 18.4474 36.0807 18.7952 36.2292 19.1573C36.3955 19.5711 36.5284 19.9982 36.6684 20.4234C36.7214 20.5759 36.7666 20.7311 36.8036 20.8883C36.894 21.2913 36.9658 21.6985 37.0633 22.0997C37.3253 23.1484 37.3687 24.2401 37.1908 25.3064C37.0711 25.9983 37.0915 26.7317 36.7007 27.3797C36.5122 27.6921 36.4805 28.0969 36.362 28.4548C36.3183 28.5876 36.2297 28.7065 36.1603 28.8308C35.8079 29.4591 35.459 30.0921 35.1006 30.7149C34.869 31.1186 34.6464 31.5312 34.3747 31.9066C34.0833 32.3102 33.7296 32.6687 33.4173 33.0591C33.0552 33.5144 32.7159 33.9877 32.3545 34.4406C32.1803 34.661 31.9565 34.843 31.7914 35.0688C31.5173 35.4436 31.2851 35.8448 31.0182 36.2244C30.7442 36.616 30.4366 36.9848 30.1763 37.3848C29.9866 37.6767 29.855 38.0058 29.6874 38.3133C29.5198 38.6208 29.3284 38.9187 29.1686 39.2329C29.0174 39.5298 28.8863 39.8366 28.776 40.1512C28.6563 40.4936 28.5708 40.8467 28.4876 41.1987C28.1932 42.4401 28.1764 43.6906 28.3212 44.9555C28.3666 45.3893 28.4745 45.8141 28.6414 46.2168C28.8245 46.6523 28.9352 47.1177 29.1255 47.5502C29.2703 47.8781 29.4905 48.1724 29.6778 48.4811C29.8268 48.7268 29.9609 48.9826 30.1296 49.2133C30.3845 49.5622 30.6018 49.9376 30.9626 50.2103C31.202 50.3905 31.3635 50.6704 31.5724 50.8938C31.7333 51.0662 31.9129 51.2205 32.0858 51.3815C32.1209 51.4122 32.162 51.4354 32.2064 51.4495C32.2508 51.4637 32.2976 51.4685 32.344 51.4637C32.3903 51.4589 32.4352 51.4446 32.4758 51.4217C32.5165 51.3988 32.5519 51.3677 32.5801 51.3304C33.054 50.7052 33.5202 50.0739 34.0061 49.4577C34.5536 48.764 35.1197 48.0853 35.6756 47.3976C35.9401 47.0709 36.1795 46.7213 36.4649 46.4138C36.7504 46.1063 37.0819 45.857 37.3739 45.5621C37.6934 45.2402 37.9771 44.8828 38.2996 44.5657C38.8268 44.048 39.3738 43.5501 39.9111 43.0426C40.2522 42.7206 40.5795 42.3819 40.9332 42.0774C41.2869 41.7729 41.6513 41.496 42.0187 41.2191C42.4256 40.9134 42.8409 40.6185 43.2574 40.3254C43.6254 40.0671 43.9928 39.807 44.3734 39.5686C44.6948 39.3674 45.0317 39.1968 45.42 38.9824C45.3931 38.8274 45.4057 38.601 45.3153 38.4298C45.0897 38.0058 45.1358 37.5433 45.058 37.0983C45.0215 36.8839 44.9383 36.6664 44.9563 36.4562C44.9952 35.9025 45.0161 35.3361 45.1597 34.8051C45.2627 34.4129 45.4618 34.0528 45.739 33.7577C45.8497 33.6441 46.3494 33.6634 46.5426 33.8111C47.0309 34.1847 47.5348 34.5421 47.9914 34.9523C48.302 35.2304 48.5461 35.5835 48.8142 35.9085C49.1278 36.2881 49.4347 36.673 49.6879 36.9854C49.6621 36.7133 49.6089 36.3625 49.6017 36.0106C49.5951 35.7061 49.6669 35.6892 49.9721 35.7637C50.4389 35.8772 50.9152 35.9529 51.3825 36.064C51.5662 36.1079 51.7416 36.201 51.9133 36.2784C52.7194 36.6346 53.4763 37.0652 54.0969 37.7085C54.4763 38.1025 54.9179 38.4497 55.2339 38.8881C55.5744 39.362 55.9657 39.8263 56.0716 40.4461C56.1279 40.7849 56.3511 41.1158 56.3337 41.4413C56.3152 41.7867 56.1339 42.1386 55.9639 42.4552C55.8047 42.7513 55.5797 43.0149 55.3619 43.2738C55.2063 43.4582 55.0119 43.6089 54.8389 43.7783C54.7192 43.893 54.6145 44.0186 54.496 44.1309C54.2333 44.3837 53.973 44.6396 53.6996 44.8798C53.3716 45.1669 53.0413 45.4498 52.6912 45.7135C52.5171 45.8462 52.5793 45.9195 52.711 46.0054C52.7549 46.0291 52.8018 46.0469 52.8504 46.0582C53.2095 46.1706 53.5853 46.248 53.9275 46.4036C54.2267 46.5405 54.4912 46.7586 54.7653 46.9514C55.0466 47.1514 55.3488 47.3352 55.5881 47.579C55.8993 47.8955 56.1638 48.2595 56.4361 48.6133C56.5881 48.8115 56.7143 49.0337 56.8549 49.2403L56.7951 49.3538C56.2272 49.3995 55.6581 49.4301 55.092 49.495C54.3363 49.5821 53.5799 49.6751 52.8301 49.8037C52.1718 49.916 51.5208 50.0619 50.8751 50.2241C50.2857 50.3743 49.7112 50.5803 49.1242 50.7424C48.6849 50.8626 48.2361 50.9502 47.7933 51.0602C47.6832 51.0878 47.5821 51.1521 47.4732 51.1893C46.8251 51.4115 46.1698 51.6163 45.5289 51.8572C45.0909 52.0211 44.675 52.244 44.2424 52.4248C43.8349 52.5953 43.4136 52.7353 43.0067 52.9053C42.6195 53.0686 42.2443 53.2602 41.8613 53.4338C41.5711 53.5659 41.2707 53.674 40.9865 53.82C40.6687 53.9804 40.3677 54.1756 40.0524 54.3413C39.7226 54.5155 39.3774 54.662 39.0506 54.8416C38.7239 55.0212 38.4181 55.2266 38.0998 55.4164C37.8496 55.5666 37.5965 55.7113 37.3428 55.8555C37.0292 56.0357 36.7109 56.2038 36.3997 56.387C36.2016 56.5035 36.0107 56.6339 35.8204 56.7636C35.3465 57.0867 34.8756 57.4147 34.401 57.7366C34.1688 57.8946 33.9259 58.0369 33.6967 58.1979C33.294 58.4808 32.8996 58.7745 32.4999 59.0591C32.1409 59.3168 31.7579 59.5504 31.4114 59.8273C31.0458 60.1192 30.7167 60.4574 30.3588 60.7607C30.001 61.064 29.6276 61.3331 29.2727 61.6322C28.946 61.9073 28.639 62.2064 28.3153 62.4863C28.0268 62.7367 27.7169 62.9667 27.4368 63.2232C27.1567 63.4797 26.8982 63.7638 26.6343 64.0406C26.3106 64.3734 25.9456 64.6623 25.6727 65.0503C25.5357 65.2443 25.3137 65.3788 25.13 65.5398L25.0402 65.4959ZM52.866 38.7362C52.787 38.7404 52.7068 38.7518 52.6266 38.7482C52.0533 38.7187 51.7129 39.1536 51.5908 39.6431C51.5058 39.983 52.0695 40.7128 52.4507 40.7284C52.8588 40.7452 53.2759 40.8281 53.6613 40.5302C54.0646 40.2179 54.2507 39.6851 53.9329 39.201C53.6654 38.7974 53.2968 38.7169 52.8654 38.7362H52.866Z" fill="white"/>
<path d="M115.077 47.1371H103.382L100.203 52.4747H92L109.622 25.0016H117.275L123.908 52.4747H116.176L115.077 47.1371ZM113.9 41.407L112.055 32.4979L106.796 41.407H113.9Z" fill="#303030"/>
<path d="M137.851 52.828C136.019 52.828 134.253 52.6317 132.552 52.2392C130.878 51.8468 129.569 51.3496 128.628 50.7479L131.336 45.528C132.304 46.1297 133.455 46.6138 134.789 46.9801C136.124 47.3202 137.432 47.4903 138.714 47.4903C140.99 47.4903 142.129 46.9801 142.129 45.9597C142.129 45.541 141.854 45.2401 141.304 45.057C140.781 44.8477 139.931 44.6514 138.753 44.4683C137.183 44.1805 135.888 43.8796 134.868 43.5656C133.874 43.2254 132.997 42.6629 132.238 41.878C131.48 41.093 131.1 39.9941 131.1 38.5812C131.1 36.1217 132.147 34.2247 134.24 32.8903C136.359 31.5297 139.094 30.8495 142.443 30.8495C143.96 30.8495 145.425 31.0065 146.838 31.3204C148.251 31.6082 149.481 32.0138 150.528 32.5371L147.898 37.757C146.119 36.6842 144.012 36.1479 141.579 36.1479C140.428 36.1479 139.564 36.3048 138.989 36.6188C138.439 36.9066 138.165 37.286 138.165 37.757C138.165 38.1756 138.426 38.4896 138.95 38.6989C139.499 38.8821 140.389 39.0914 141.618 39.3269C143.136 39.5885 144.392 39.8894 145.386 40.2296C146.407 40.5697 147.283 41.1323 148.016 41.9172C148.775 42.7022 149.154 43.7749 149.154 45.1355C149.154 47.595 148.094 49.4919 145.975 50.8263C143.856 52.1608 141.147 52.828 137.851 52.828Z" fill="#303030"/>
<path d="M172.266 40.622L179.409 52.4747H170.696L166.339 45.214L163.278 47.8828L162.375 52.4747H154.918L160.727 23.3532H168.184L165.162 38.4634L173.757 31.2027H183.176L172.266 40.622Z" fill="#303030"/>
<path d="M200.249 28.7301C199.438 28.7301 198.797 28.9656 198.326 29.4366C197.855 29.8814 197.514 30.5878 197.305 31.5559L197.227 31.9876H202.25L201.151 37.5608H196.324L193.341 52.4747H185.884L188.867 37.5608H185.727L186.865 31.9876H190.005L190.162 31.1242C190.659 28.6124 191.758 26.6369 193.459 25.1978C195.16 23.7326 197.397 23 200.17 23C202.29 23 204.003 23.3794 205.312 24.1382L202.447 29.3581C201.766 28.9394 201.034 28.7301 200.249 28.7301Z" fill="#303030"/>
<path d="M228.718 40.1903C228.718 41.2108 228.574 42.3751 228.287 43.6833H212.666C212.928 45.9858 214.537 47.1371 217.494 47.1371C218.436 47.1371 219.351 46.9932 220.241 46.7054C221.13 46.4176 221.929 45.9858 222.635 45.4102L225.736 50.0806C223.25 51.9122 220.228 52.828 216.669 52.828C214.419 52.828 212.431 52.4355 210.704 51.6505C209.003 50.8394 207.682 49.7143 206.74 48.2753C205.824 46.81 205.366 45.0962 205.366 43.1339C205.366 40.8052 205.903 38.712 206.975 36.8543C208.074 34.9704 209.592 33.5052 211.528 32.4586C213.49 31.3858 215.727 30.8495 218.239 30.8495C220.359 30.8495 222.203 31.2419 223.773 32.0269C225.369 32.7857 226.586 33.8715 227.423 35.2844C228.287 36.6973 228.718 38.3326 228.718 40.1903ZM217.886 36.1479C216.682 36.1479 215.675 36.4749 214.864 37.129C214.053 37.757 213.464 38.6335 213.098 39.7586H221.85C221.876 38.6335 221.523 37.757 220.79 37.129C220.058 36.4749 219.09 36.1479 217.886 36.1479Z" fill="#303030"/>
<path d="M239.421 23.3532H246.878L241.069 52.4747H233.612L239.421 23.3532Z" fill="#303030"/>
<path d="M255.649 23.3532H263.106L257.297 52.4747H249.84L255.649 23.3532Z" fill="#303030"/>
<path d="M277.881 52.828C275.631 52.828 273.669 52.4355 271.994 51.6505C270.32 50.8394 269.025 49.7013 268.109 48.236C267.193 46.7708 266.735 45.0701 266.735 43.1339C266.735 40.8052 267.298 38.712 268.423 36.8543C269.548 34.9966 271.105 33.5314 273.093 32.4586C275.082 31.3858 277.319 30.8495 279.804 30.8495C282.055 30.8495 284.017 31.255 285.692 32.0661C287.366 32.8511 288.661 33.9762 289.577 35.4414C290.493 36.8805 290.951 38.5681 290.951 40.5043C290.951 42.833 290.388 44.9392 289.263 46.8231C288.138 48.6808 286.581 50.1461 284.593 51.2188C282.63 52.2916 280.393 52.828 277.881 52.828ZM278.313 46.8231C279.804 46.8231 281.021 46.2737 281.963 45.1747C282.905 44.0758 283.376 42.6498 283.376 40.8968C283.376 39.6409 283.023 38.6466 282.316 37.914C281.61 37.1814 280.629 36.8151 279.373 36.8151C277.881 36.8151 276.665 37.3645 275.723 38.4634C274.781 39.5624 274.31 41.0014 274.31 42.7806C274.31 44.0366 274.663 45.0308 275.37 45.7634C276.076 46.4699 277.057 46.8231 278.313 46.8231Z" fill="#303030"/>
<defs>
<linearGradient id="paint0_linear" x1="37.5" y1="0" x2="37.5" y2="75" gradientUnits="userSpaceOnUse">
<stop stop-color="#08A5F7"/>
<stop offset="1" stop-color="#014FDF"/>
</linearGradient>
</defs>
</svg>
